<?xml version="1.0" encoding="UTF-8"?>
<svg version="1.1" xmlns="http://www.w3.org/2000/svg" width="667" height="178">
<path d="M0 0 C220.11 0 440.22 0 667 0 C667 58.74 667 117.48 667 178 C446.89 178 226.78 178 0 178 C0 119.26 0 60.52 0 0 Z " fill="#FEFEFE" transform="translate(0,0)"/>
<path d="M0 0 C0.79664062 -0.04898438 1.59328125 -0.09796875 2.4140625 -0.1484375 C10.83010194 1.33935839 16.7941908 7.22946937 22.5 13.1875 C23.16386719 13.86103516 23.82773438 14.53457031 24.51171875 15.22851562 C28.4411946 19.2464239 32.18743605 23.3872859 35.82763672 27.66870117 C37.517297 29.61135962 37.517297 29.61135962 40.375 31.875 C42.91309107 33.9900759 44.82647325 35.99230084 46.9375 38.5 C48.96637491 40.89979257 50.3200292 42.34304023 53.0625 43.9375 C56.52288954 46.08855296 58.22641229 48.54637429 59.375 52.375 C59.69808139 57.0622443 59.60917169 61.6850615 59.375 66.375 C58.715 66.375 58.055 66.375 57.375 66.375 C57.354375 67.07625 57.33375 67.7775 57.3125 68.5 C55.91012226 72.80062506 53.04028806 74.86836705 49.375 77.375 C44.91135891 79.46436392 40.24936374 80.37625259 35.375 79.375 C28.08863224 75.67064096 22.37491392 69.82850412 16.66796875 64.1015625 C15.78015213 63.21898773 14.89233551 62.33641296 13.97761536 61.42709351 C11.64067279 59.09816364 9.31138418 56.76187919 6.98413086 54.42327881 C5.56122522 52.99872374 4.13168403 51.58120105 2.69946289 50.16601562 C-0.07158042 47.42572195 -2.82859545 44.67203594 -5.58203125 41.9140625 C-6.42997757 41.07735016 -7.27792389 40.24063782 -8.15156555 39.37857056 C-13.38095858 34.08719811 -17.68969215 29.16845271 -19.15625 21.65234375 C-19.06523485 14.83758408 -17.75161623 10.51582812 -12.90625 5.6484375 C-8.76618354 1.9469374 -5.65433984 0.23335371 0 0 Z " fill="#FC3496" transform="translate(112.625,70.625)"/>
<path d="M0 0 C0 23.43 0 46.86 0 71 C2.31 71.33 4.62 71.66 7 72 C6.505 73.485 6.505 73.485 6 75 C0.72006588 77.45790037 -3.21840447 78.36134972 -9 78 C-9.495 73.545 -9.495 73.545 -10 69 C-10.53625 69.928125 -11.0725 70.85625 -11.625 71.8125 C-14.29745671 75.39921822 -15.79085151 76.57047787 -20 78 C-25.96241487 78.78338298 -30.72169616 78.04517529 -36 75 C-41.79315099 69.60183658 -43.63928143 63.35332963 -44.28515625 55.55859375 C-44.52408598 45.92868695 -43.62781913 37.71002378 -36.77734375 30.5078125 C-29.70746712 24.51007101 -21.95261401 24.26892978 -13 25 C-11.68 25.33 -10.36 25.66 -9 26 C-9 19.73 -9 13.46 -9 7 C-11.64 7 -14.28 7 -17 7 C-17 5.68 -17 4.36 -17 3 C-15.10614563 2.49255577 -13.20981334 1.99435426 -11.3125 1.5 C-9.72888672 1.08234375 -9.72888672 1.08234375 -8.11328125 0.65625 C-5 0 -5 0 0 0 Z " fill="#3A3A3A" transform="translate(569,51)"/>
<path d="M0 0 C7.28518076 4.34010769 10.29279457 8.81588372 12.9375 16.75 C13.63408247 26.81047791 14.09184071 36.76828139 7.13671875 44.83984375 C0.58054049 51.06503049 -6.12681781 52.30995501 -14.9921875 52.12109375 C-20.81492503 51.41732776 -25.78293441 49.31384082 -29.72265625 44.8828125 C-35.30359648 36.51953763 -35.91583652 27.57431016 -35.0625 17.75 C-33.42291981 10.0917077 -29.59107192 5.02943635 -23.0625 0.75 C-16.46543003 -2.56516626 -6.87088061 -2.77565375 0 0 Z " fill="#383838" transform="translate(443.0625,77.25)"/>
<path d="M0 0 C4.81836098 2.85532503 8.84625969 6.94251937 11.375 12 C11.68359375 14.50390625 11.68359375 14.50390625 11.8125 17.5625 C11.87308594 18.55378906 11.93367188 19.54507813 11.99609375 20.56640625 C10.44228045 29.15635527 3.14647777 35.64824416 -2.8671875 41.53515625 C-3.63555939 42.29928329 -4.40393127 43.06341034 -5.19558716 43.85069275 C-7.62336932 46.26183822 -10.06142844 48.66227227 -12.5 51.0625 C-14.15954829 52.70698211 -15.81840929 54.35215811 -17.4765625 55.99804688 C-21.51813519 60.00674972 -25.5681724 64.006739 -29.625 68 C-29.955 67.01 -30.285 66.02 -30.625 65 C-29.965 65 -29.305 65 -28.625 65 C-28.7122605 62.74928094 -28.82044115 60.49936612 -28.9375 58.25 C-28.99550781 56.99703125 -29.05351562 55.7440625 -29.11328125 54.453125 C-29.64194233 50.88567158 -30.37397032 49.67950987 -32.625 47 C-32.625 46.01 -32.625 45.02 -32.625 44 C-33.19992188 43.91234375 -33.77484375 43.8246875 -34.3671875 43.734375 C-37.24201388 42.79931037 -38.63164551 41.39251823 -40.75 39.25 C-41.43320313 38.57453125 -42.11640625 37.8990625 -42.8203125 37.203125 C-44.72515211 34.87773639 -45.57565268 32.79402439 -46.625 30 C-42.7569776 26.05757787 -38.87902016 22.12529912 -34.99169922 18.2019043 C-33.67189253 16.86705201 -32.35479607 15.52951418 -31.04052734 14.18920898 C-29.14614211 12.25825537 -27.24207893 10.33730965 -25.3359375 8.41796875 C-24.75443939 7.82098679 -24.17294128 7.22400482 -23.57382202 6.6089325 C-16.39698532 -0.57080751 -9.82011936 -2.70899844 0 0 Z " fill="#B682FC" transform="translate(200.625,72)"/>
<path d="M0 0 C4.70484513 1.96431244 8.11935829 4.29258374 11.3828125 8.28125 C11.84816406 8.82265625 12.31351563 9.3640625 12.79296875 9.921875 C17.31398711 15.91631717 17.31754054 22.01419769 16.3828125 29.28125 C13.80577082 40.07020808 1.04545155 49.81621482 -6.6171875 57.28125 C-11.75225331 55.0156956 -15.19550658 51.07127272 -19.1171875 47.15625 C-20.25607422 46.05410156 -20.25607422 46.05410156 -21.41796875 44.9296875 C-27.88765512 38.49399248 -32.17692511 32.82578763 -32.2421875 23.40625 C-32.00932721 16.39039492 -30.34511812 11.50786701 -25.6171875 6.28125 C-17.729005 -0.17992461 -10.18492132 -2.79705302 0 0 Z " fill="#05DF9B" transform="translate(160.6171875,31.71875)"/>
<path d="M0 0 C1.18464844 -0.02578125 2.36929687 -0.0515625 3.58984375 -0.078125 C7.50022427 0.29135977 9.78158423 1.10317034 13.0625 3.25 C16.61656023 7.68312858 16.45966209 11.63113505 16.35546875 17.05078125 C16.35122391 17.88715622 16.34697906 18.72353119 16.34260559 19.58525085 C16.32587364 22.24466765 16.28823226 24.903314 16.25 27.5625 C16.23494604 29.37043173 16.22125888 31.17837539 16.20898438 32.98632812 C16.17598816 37.40784689 16.12424428 41.82879302 16.0625 46.25 C17.01125 46.229375 17.96 46.20875 18.9375 46.1875 C22.0625 46.25 22.0625 46.25 24.0625 47.25 C23.0625 50.25 23.0625 50.25 21.42578125 51.19921875 C17.15123693 52.7380547 13.67844432 53.59619582 9.0625 53.25 C8.4025 50.28 7.7425 47.31 7.0625 44.25 C6.52625 45.178125 5.99 46.10625 5.4375 47.0625 C2.74553104 50.67540571 1.31464123 51.83261959 -2.9375 53.25 C-7.96639149 53.91342054 -11.75147559 53.81066609 -16.375 51.625 C-20.30414148 47.98335668 -22.05967703 44.57997533 -22.375 39.25 C-22.17888342 34.96812128 -20.80788216 32.48837987 -17.9375 29.25 C-11.93821937 24.89321383 -6.9585715 24.12017526 0.3125 24.1875 C2.20742188 24.20103516 2.20742188 24.20103516 4.140625 24.21484375 C5.10484375 24.22644531 6.0690625 24.23804687 7.0625 24.25 C7.00231939 21.83073961 6.91527783 19.41751328 6.8125 17 C6.79832031 16.31808594 6.78414063 15.63617188 6.76953125 14.93359375 C6.60717046 11.58896143 6.26512461 9.53584543 4.3125 6.78125 C0.55666924 4.22519851 -2.4934354 4.98858444 -6.9375 5.25 C-8.9175 9.21 -10.8975 13.17 -12.9375 17.25 C-13.9275 17.25 -14.9175 17.25 -15.9375 17.25 C-17.69497614 12.74646738 -18.13044408 9.07360189 -17.9375 4.25 C-11.78911815 0.96133064 -6.94719282 0.09051717 0 0 Z " fill="#3B3B3B" transform="translate(331.9375,75.75)"/>
<path d="M0 0 C0.10477512 5.78591511 -0.00749455 11.29309366 -1 17 C-2.32 17.33 -3.64 17.66 -5 18 C-5.50471197 16.23050388 -6.00360685 14.45934777 -6.5 12.6875 C-6.7784375 11.70136719 -7.056875 10.71523437 -7.34375 9.69921875 C-8 7 -8 7 -8 4 C-10.75105422 3.89187997 -13.49785087 3.81265055 -16.25 3.75 C-17.02730469 3.71648438 -17.80460937 3.68296875 -18.60546875 3.6484375 C-23.39825089 3.54157522 -23.39825089 3.54157522 -27.484375 5.890625 C-30.25086071 9.74088861 -30.54720843 12.23146938 -30 17 C-26.40756985 22.96238935 -21.12826918 25.97969999 -15.0625 29 C-7.55114123 32.75881173 -0.43690063 36.95528644 3 45 C3.82435711 51.17309274 3.48952417 56.83652722 0.33203125 62.28125 C-3.39975163 67.09645372 -8.20322849 69.43218991 -14 71 C-16.77628208 71.31823274 -19.51957318 71.37997017 -22.3125 71.375 C-23.43483032 71.37693359 -23.43483032 71.37693359 -24.57983398 71.37890625 C-30.54975486 71.26481068 -34.78952404 70.03154965 -40 67 C-40.22262303 60.2718373 -39.95021536 54.46008837 -38 48 C-37.01 48 -36.02 48 -35 48 C-34.32815382 50.10251861 -33.66269032 52.20707763 -33 54.3125 C-32.62875 55.48425781 -32.2575 56.65601563 -31.875 57.86328125 C-31 61 -31 61 -31 64 C-23.92167553 65.96088718 -18.14321758 65.60278745 -11.62890625 62.16796875 C-9.69694467 60.92778931 -9.69694467 60.92778931 -8 58 C-7.72076033 55.58712654 -7.72076033 55.58712654 -7.8125 53 C-7.82216797 51.700625 -7.82216797 51.700625 -7.83203125 50.375 C-7.91169563 47.85072535 -7.91169563 47.85072535 -9 45 C-10.83042088 43.88106283 -10.83042088 43.88106283 -13 43 C-35.7458837 31.39467331 -35.7458837 31.39467331 -40 21 C-40.71669548 14.83828046 -40.68012492 9.20293523 -37 4 C-26.47363001 -6.23397082 -12.9676296 -3.92533653 0 0 Z " fill="#393939" transform="translate(267,58)"/>
<path d="M0 0 C3.61064092 2.30693983 6.76764891 4.54985116 9.6875 7.6875 C11.92546419 10.09009604 12.80130547 10.93376849 16 12 C21.20522789 18.39499426 20.3963017 25.06295758 20 33 C19.34 33 18.68 33 18 33 C17.979375 33.70125 17.95875 34.4025 17.9375 35.125 C16.53512226 39.42562506 13.66528806 41.49336705 10 44 C5.54340074 46.08606774 0.86551898 47.01733579 -4 46 C-7.29836617 44.35081692 -10.16269903 42.3482868 -13 40 C-14.35351562 38.89011719 -14.35351562 38.89011719 -15.734375 37.7578125 C-18.66771432 34.1872305 -18.64077281 32.13455312 -18.5625 27.5625 C-18.56378906 26.28503906 -18.56507813 25.00757813 -18.56640625 23.69140625 C-17.41921102 16.21485803 -11.94712193 11.6847996 -6.75 6.625 C-6.1003125 5.98433594 -5.450625 5.34367187 -4.78125 4.68359375 C-3.19199115 3.11770636 -1.59823583 1.55671491 0 0 Z " fill="#ED1D95" transform="translate(152,104)"/>
<path d="M0 0 C0.33 3.3 0.66 6.6 1 10 C1.53625 9.0925 2.0725 8.185 2.625 7.25 C5.00733796 3.78328752 7.10324646 1.809207 11 0 C17.32829098 -0.77365096 23.77030842 -1.05301097 29 3 C33.42681469 8.93107211 34.14513067 14.42333474 34.31640625 21.609375 C34.33718735 22.33618469 34.35796844 23.06299438 34.37937927 23.81182861 C34.44455512 26.12445991 34.5036104 28.43720093 34.5625 30.75 C34.60571566 32.32162575 34.64933092 33.89324056 34.69335938 35.46484375 C34.80020356 39.30978453 34.90156024 43.15483524 35 47 C36.65 47.66 38.3 48.32 40 49 C40 49.99 40 50.98 40 52 C32.74 52 25.48 52 18 52 C18 51.01 18 50.02 18 49 C19.65 48.34 21.3 47.68 23 47 C23.04973511 42.57089728 23.08587704 38.14194603 23.10986328 33.71264648 C23.11987124 32.20838587 23.1334818 30.70414447 23.15087891 29.19995117 C23.17535809 27.02778357 23.18653523 24.85587496 23.1953125 22.68359375 C23.20578613 21.37962646 23.21625977 20.07565918 23.22705078 18.73217773 C22.98704289 14.78701568 22.22187181 11.73537628 21 8 C17.27768022 6.80885767 13.88627639 6.66497617 10 7 C5.54693632 9.31216768 3.17367626 11.5094525 1 16 C0.49863976 19.4777572 0.49863976 19.4777572 0.48828125 23.26953125 C0.47033005 23.95053391 0.45237885 24.63153656 0.43388367 25.33317566 C0.38001369 27.4928888 0.34596218 29.65238399 0.3125 31.8125 C0.27930609 33.28323331 0.24481451 34.75393793 0.20898438 36.22460938 C0.12430284 39.81619687 0.05738039 43.40786076 0 47 C2.31 47.66 4.62 48.32 7 49 C7 49.99 7 50.98 7 52 C-0.26 52 -7.52 52 -15 52 C-15 51.01 -15 50.02 -15 49 C-13.02 48.34 -11.04 47.68 -9 47 C-9 33.8 -9 20.6 -9 7 C-11.97 6.505 -11.97 6.505 -15 6 C-14.67 4.68 -14.34 3.36 -14 2 C-9.126739 0.4087311 -5.19209404 -0.21192221 0 0 Z " fill="#3B3B3B" transform="translate(479,76)"/>
<path d="M0 0 C5.7212369 2.91670901 8.97377774 6.92133322 11 13 C12.0548935 33.32698629 12.0548935 33.32698629 8 40 C5.3507644 42.5846201 2.8453401 44.98187289 -0.98828125 45.01953125 C-6.14965927 44.55977825 -9.2987173 43.91900521 -13 40 C-17.20669667 34.14067249 -17.22623984 28.15157064 -17.3125 21.1875 C-17.34150391 20.41857422 -17.37050781 19.64964844 -17.40039062 18.85742188 C-17.46333314 13.1199699 -16.25186988 8.77252344 -13 4 C-8.74657993 0.21918216 -5.6482954 -0.80689934 0 0 Z " fill="#FBFBFB" transform="translate(435,80)"/>
<path d="M0 0 C1.26972656 0.00257812 2.53945313 0.00515625 3.84765625 0.0078125 C5.11480469 0.00523438 6.38195312 0.00265625 7.6875 0 C10.91015625 0.1328125 10.91015625 0.1328125 12.91015625 1.1328125 C13.00985088 5.25863647 13.08200858 9.38398347 13.12988281 13.51074219 C13.14986255 14.91125723 13.17705645 16.31169032 13.21191406 17.71191406 C13.56669303 32.34132925 13.56669303 32.34132925 8.91015625 39.1328125 C4.96206755 41.87930899 1.6833886 42.92835122 -3.08984375 42.1328125 C-7.50104971 39.364997 -9.99415151 36.74605954 -11.62109375 31.6328125 C-13.18876376 23.27190577 -13.22517749 13.77101717 -9.08984375 6.1328125 C-6.46484375 3.1328125 -6.46484375 3.1328125 -4.08984375 1.1328125 C-3.08984375 0.1328125 -3.08984375 0.1328125 0 0 Z " fill="#F8F8F8" transform="translate(547.08984375,80.8671875)"/>
<path d="M0 0 C0.74701172 -0.01224609 1.49402344 -0.02449219 2.26367188 -0.03710938 C6.80272437 -0.04906474 10.41249142 0.46798145 14.6875 2.1875 C14.5733134 4.12566735 14.44576577 6.06305099 14.3125 8 C14.24289062 9.07894531 14.17328125 10.15789062 14.1015625 11.26953125 C13.6875 14.1875 13.6875 14.1875 11.6875 17.1875 C10.6975 17.1875 9.7075 17.1875 8.6875 17.1875 C7.0375 13.2275 5.3875 9.2675 3.6875 5.1875 C-1.17921344 4.79021727 -4.72301534 5.10564929 -8.80078125 7.75390625 C-13.53739552 12.24573425 -13.5379822 19.05223503 -13.75 25.1875 C-13.57087852 32.72688613 -12.22105166 38.34988863 -6.75 43.6875 C-1.7720468 46.75085582 3.01118374 46.56592108 8.6875 46.1875 C12.1489054 45.31649451 12.1489054 45.31649451 14.6875 44.1875 C13.79453222 47.75937114 12.75030717 49.13585855 9.875 51.5 C3.96228678 54.53057477 -3.42977783 54.25272735 -9.71875 52.52734375 C-16.15015809 49.67031439 -20.59329322 44.61654998 -23.1875 38.125 C-25.72714083 29.21344595 -25.42652479 19.66362234 -21.51953125 11.2421875 C-16.36270569 2.46390192 -9.64280599 0.0081927 0 0 Z " fill="#363636" transform="translate(386.3125,75.8125)"/>
<path d="M0 0 C0.33 15.84 0.66 31.68 1 48 C2.65 48.66 4.3 49.32 6 50 C6 50.99 6 51.98 6 53 C-1.26 53 -8.52 53 -16 53 C-15.67 51.68 -15.34 50.36 -15 49 C-12.525 48.505 -12.525 48.505 -10 48 C-10 34.8 -10 21.6 -10 8 C-12.97 7.505 -12.97 7.505 -16 7 C-15.67 5.68 -15.34 4.36 -15 3 C-13.25183142 2.49363393 -11.50137737 1.99515381 -9.75 1.5 C-8.77546875 1.2215625 -7.8009375 0.943125 -6.796875 0.65625 C-4 0 -4 0 0 0 Z " fill="#414141" transform="translate(296,75)"/>
<path d="M0 0 C1.18851562 0.00902344 2.37703125 0.01804687 3.6015625 0.02734375 C4.51679688 0.03894531 5.43203125 0.05054687 6.375 0.0625 C7.23431737 11.86379193 7.23431737 11.86379193 4.3125 15.75 C0.80356765 18.512351 -1.18145649 19.0625 -5.625 19.0625 C-9.50692461 18.0273201 -10.34749908 17.47875138 -12.625 14.0625 C-13.29726891 7.11572129 -13.29726891 7.11572129 -10.75 3.125 C-7.18169152 -0.33835823 -4.8813235 -0.04785611 0 0 Z " fill="#FAFAFA" transform="translate(332.625,103.9375)"/>
<path d="M0 0 C0.70125 0.00515625 1.4025 0.0103125 2.125 0.015625 C2.82625 0.01046875 3.5275 0.0053125 4.25 0 C6.125 0.265625 6.125 0.265625 8.125 2.265625 C8.4375 5.765625 8.4375 5.765625 8.125 9.265625 C4.45153229 11.71460347 2.46143601 11.58100216 -1.875 11.265625 C-3.875 9.265625 -3.875 9.265625 -4.125 5.765625 C-3.75112748 0.53140973 -3.75112748 0.53140973 0 0 Z " fill="#383838" transform="translate(288.875,53.734375)"/>
<path d="M0 0 C0.66 0 1.32 0 2 0 C2 0.66 2 1.32 2 2 C2.66 2 3.32 2 4 2 C6.50618869 8.6299175 7.46661285 16.27801526 5.32421875 23.17578125 C4.5 24.8125 4.5 24.8125 3 27 C2.34 27 1.68 27 1 27 C1.33 26.113125 1.66 25.22625 2 24.3125 C4.2997168 16.18903995 4.13356286 7.4059668 0 0 Z " fill="#DEFFFC" transform="translate(173,41)"/>
<path d="M0 0 C0.66 0.33 1.32 0.66 2 1 C0.71937515 2.7074998 -0.61767557 4.37373596 -2 6 C-2.66 6 -3.32 6 -4 6 C-5.91626837 10.98229776 -6.5547115 15.72684667 -7 21 C-7.33 21 -7.66 21 -8 21 C-8.50656782 14.00654987 -8.13822981 9.7475414 -4 4 C-1.75 1.5625 -1.75 1.5625 0 0 Z " fill="#E54994" transform="translate(102,74)"/>
<path d="M0 0 C0.66 0.33 1.32 0.66 2 1 C1.04578192 2.14926266 0.08647955 3.29430541 -0.875 4.4375 C-1.40867188 5.07558594 -1.94234375 5.71367188 -2.4921875 6.37109375 C-4 8 -4 8 -6 9 C-6.33 9.99 -6.66 10.98 -7 12 C-7.66 12 -8.32 12 -9 12 C-7.60090738 7.54834166 -5.39864635 5.14374788 -2 2 C-1.34 1.34 -0.68 0.68 0 0 Z " fill="#29D8A2" transform="translate(140,34)"/>
<path d="M0 0 C0.33 0 0.66 0 1 0 C1.05441656 1.89551022 1.09298035 3.7914792 1.125 5.6875 C1.14820313 6.74324219 1.17140625 7.79898438 1.1953125 8.88671875 C0.99858729 12.02251859 0.33057654 14.17645373 -1 17 C-1.66 17 -2.32 17 -3 17 C-2.690625 16.05125 -2.38125 15.1025 -2.0625 14.125 C-0.72071729 9.49061575 -0.36657993 4.79447959 0 0 Z " fill="#AEF9E8" transform="translate(177,51)"/>
<path d="M0 0 C1.12894876 0.93274109 2.25300876 1.87140122 3.375 2.8125 C4.00148437 3.33457031 4.62796875 3.85664062 5.2734375 4.39453125 C7 6 7 6 9 9 C6 9 6 9 4.3125 7.625 C3 6 3 6 3 4 C2.34 4 1.68 4 1 4 C0.67 2.68 0.34 1.36 0 0 Z " fill="#ED5CA2" transform="translate(134,84)"/>
</svg>